<svg xmlns="http://www.w3.org/2000/svg" width="22" height="25" viewBox="0 0 22 25" fill="none">
  <g clip-path="url(#clip0_5127_522)">
    <path d="M18.259 5.05156C16.3205 3.08281 13.7388 2 10.9952 2C5.33225 2 0.724136 6.66875 0.724136 12.4062C0.724136 14.2391 1.19605 16.0297 2.09362 17.6094L0.63623 23L6.08177 21.5516C7.58079 22.3813 9.26951 22.8172 10.9906 22.8172H10.9952C16.6536 22.8172 21.3635 18.1484 21.3635 12.4109C21.3635 9.63125 20.1976 7.02031 18.259 5.05156ZM10.9952 21.0641C9.4592 21.0641 7.95555 20.6469 6.64621 19.8594L6.33623 19.6719L3.10685 20.5297L3.9674 17.3375L3.76383 17.0094C2.9079 15.6313 2.45912 14.0422 2.45912 12.4062C2.45912 7.63906 6.28996 3.75781 10.9999 3.75781C13.2808 3.75781 15.4229 4.65781 17.033 6.29375C18.643 7.92969 19.6331 10.1 19.6285 12.4109C19.6285 17.1828 15.7005 21.0641 10.9952 21.0641ZM15.6774 14.5859C15.4229 14.4547 14.1599 13.8266 13.9239 13.7422C13.6879 13.6531 13.5168 13.6109 13.3456 13.8734C13.1744 14.1359 12.684 14.7172 12.5313 14.8953C12.3832 15.0688 12.2305 15.0922 11.9761 14.9609C10.4678 14.1969 9.47771 13.5969 8.48298 11.8672C8.21927 11.4078 8.7467 11.4406 9.23712 10.4469C9.3204 10.2734 9.27876 10.1234 9.21399 9.99219C9.14922 9.86094 8.63566 8.58125 8.42284 8.06094C8.21464 7.55469 8.00181 7.625 7.84451 7.61563C7.69646 7.60625 7.52527 7.60625 7.35409 7.60625C7.1829 7.60625 6.9053 7.67188 6.66935 7.92969C6.43339 8.19219 5.77178 8.82031 5.77178 10.1C5.77178 11.3797 6.69248 12.6172 6.8174 12.7906C6.94694 12.9641 8.62641 15.5891 11.2034 16.7188C12.832 17.4312 13.4705 17.4922 14.2848 17.3703C14.7798 17.2953 15.8023 16.7422 16.0151 16.1328C16.228 15.5234 16.228 15.0031 16.1632 14.8953C16.103 14.7781 15.9318 14.7125 15.6774 14.5859Z" fill="#F3F7F8"/>
  </g>
  <defs>
    <clipPath id="clip0_5127_522">
      <rect width="20.7273" height="24" fill="white" transform="translate(0.636353 0.5)"/>
    </clipPath>
  </defs>
</svg>
